<?xml version="1.0" standalone="no"?>
<!DOCTYPE svg PUBLIC "-//W3C//DTD SVG 20010904//EN"
 "http://www.w3.org/TR/2001/REC-SVG-20010904/DTD/svg10.dtd">
<svg version="1.0" xmlns="http://www.w3.org/2000/svg"
 width="213.000000pt" height="213.000000pt" viewBox="0 0 213.000000 213.000000"
 preserveAspectRatio="xMidYMid meet">
<metadata>
Created by potrace 1.14, written by Peter Selinger 2001-2017
</metadata>
<g transform="translate(0.000000,213.000000) scale(0.100000,-0.100000)"
fill="#000000" stroke="none">
<path d="M957 2013 c-4 -6 -18 -10 -32 -8 -14 1 -25 -1 -25 -6 0 -4 -9 -6 -20
-4 -11 2 -20 -2 -20 -8 0 -8 -3 -8 -9 2 -6 9 -11 10 -15 2 -4 -6 -12 -9 -17
-6 -5 4 -9 1 -9 -4 0 -6 -3 -10 -7 -10 -5 1 -10 0 -13 -1 -6 -2 -26 -7 -59
-14 -12 -3 -28 -9 -35 -14 -6 -5 -28 -15 -48 -21 -21 -7 -38 -17 -38 -23 0 -6
-7 -7 -15 -4 -9 3 -18 -1 -21 -9 -4 -8 -12 -15 -20 -15 -8 0 -14 -5 -14 -12 0
-6 -3 -9 -6 -5 -6 6 -24 -6 -52 -35 -9 -10 -20 -18 -25 -18 -4 0 -19 -11 -33
-25 -14 -14 -30 -25 -36 -25 -6 0 -9 -2 -6 -5 3 -3 -11 -23 -31 -44 -20 -21
-43 -49 -51 -61 -8 -13 -24 -31 -34 -41 -11 -11 -16 -19 -12 -19 4 0 0 -7 -8
-16 -9 -8 -14 -20 -11 -25 4 -5 2 -9 -4 -9 -6 0 -20 -21 -32 -47 -12 -27 -21
-48 -20 -48 1 0 -4 -13 -13 -29 -8 -16 -13 -33 -10 -38 3 -4 1 -8 -4 -8 -6 0
-13 -16 -16 -35 -4 -19 -10 -35 -14 -35 -4 0 -7 -16 -7 -35 1 -19 -2 -35 -7
-35 -4 0 -8 -5 -8 -11 0 -5 6 -7 13 -3 8 5 7 2 -2 -9 -15 -19 -25 -247 -11
-247 4 0 5 -11 2 -25 -3 -16 0 -25 8 -25 9 0 9 -4 2 -12 -9 -12 4 -74 28 -133
5 -11 15 -38 22 -60 7 -22 25 -62 40 -88 16 -26 28 -50 28 -53 0 -6 40 -63 58
-82 6 -7 12 -17 12 -21 0 -4 26 -34 57 -67 31 -32 56 -63 55 -67 -1 -5 2 -6 8
-2 5 3 10 2 10 -2 0 -10 102 -78 113 -75 4 1 10 -5 13 -13 3 -8 10 -12 15 -9
5 3 12 -1 15 -10 3 -8 12 -12 20 -9 8 3 14 1 14 -4 0 -9 56 -33 74 -32 5 0 12
-4 15 -10 4 -6 17 -12 29 -14 12 -2 25 -6 28 -10 4 -4 18 -7 31 -7 12 0 23 -4
23 -8 0 -4 10 -8 23 -9 12 0 40 -4 62 -9 39 -8 246 -10 312 -3 18 2 33 8 33
12 0 5 9 5 20 2 11 -3 20 -3 20 2 0 5 8 10 18 11 9 1 26 4 37 6 11 2 24 5 29
5 5 1 3 8 -4 16 -7 8 -17 12 -23 8 -25 -15 -237 -22 -237 -8 0 5 -5 3 -10 -5
-5 -8 -10 -10 -10 -5 0 6 -10 10 -22 11 -51 2 -124 17 -137 28 -8 6 -16 10
-18 8 -5 -4 -56 10 -78 22 -11 5 -22 11 -25 12 -28 8 -70 30 -70 36 0 4 -9 8
-20 8 -11 0 -20 5 -20 10 0 6 -7 10 -15 10 -8 0 -15 5 -15 11 0 5 -4 8 -9 5
-5 -3 -11 1 -15 9 -3 8 -12 15 -21 15 -8 0 -15 5 -15 11 0 5 -4 7 -10 4 -5 -3
-10 1 -10 9 0 9 -4 16 -9 16 -4 0 -34 25 -66 55 -31 30 -54 55 -51 55 6 0 -23
36 -52 66 -7 8 -11 14 -7 14 3 0 -2 12 -13 28 -28 39 -74 132 -65 132 4 0 2 5
-5 12 -7 7 -12 22 -12 35 0 13 -4 23 -8 23 -4 0 -9 10 -10 23 -3 26 -10 62
-12 62 -12 0 -19 268 -7 283 6 8 6 12 -1 12 -6 0 -5 16 4 45 7 25 11 45 8 45
-2 0 2 13 11 29 11 23 12 31 2 34 -9 4 -9 6 0 6 7 1 15 17 19 36 3 19 11 35
18 35 6 0 4 5 -4 10 -9 6 -10 10 -3 10 9 0 24 28 26 50 1 3 5 10 9 15 5 6 29
43 54 83 25 39 51 72 57 72 5 0 7 3 4 6 -6 7 82 104 95 104 4 0 19 11 34 25
15 14 33 25 41 25 8 0 12 4 9 9 -3 4 7 14 22 20 15 7 28 11 28 9 1 -1 10 4 20
12 32 26 81 50 88 43 3 -3 6 -1 6 6 0 7 5 9 10 6 6 -3 10 -1 10 5 0 6 4 9 9 5
5 -3 12 -1 16 5 4 6 11 8 16 5 5 -4 9 -2 9 2 0 8 19 13 63 16 9 1 17 4 17 7 0
4 6 7 13 8 6 0 26 4 42 7 43 10 235 13 267 4 17 -5 29 -3 32 4 3 8 5 8 5 -1 1
-7 6 -10 11 -7 6 3 10 1 10 -4 0 -6 9 -11 20 -11 12 0 20 7 20 18 0 13 -2 14
-9 4 -6 -10 -10 -10 -21 3 -7 8 -25 15 -40 15 -14 0 -30 3 -33 7 -7 7 -36 11
-99 15 -21 2 -38 5 -38 8 0 3 -13 5 -30 5 -16 0 -30 -4 -30 -9 0 -5 -7 -2 -17
5 -9 8 -19 12 -22 11 -33 -20 -43 -23 -37 -13 5 8 0 8 -18 1 -17 -6 -26 -6
-29 3 -2 8 -5 8 -10 0z"/>
<path d="M1095 1861 c-2 -2 -22 -4 -43 -6 -22 -1 -43 -5 -48 -8 -13 -7 -83
-20 -88 -16 -3 2 -12 -5 -21 -16 -9 -11 -13 -13 -9 -5 6 12 4 13 -7 3 -7 -7
-21 -13 -30 -13 -10 0 -20 -4 -23 -9 -7 -10 26 -7 116 12 52 11 243 17 243 7
0 -1 14 -4 30 -6 41 -6 107 -26 123 -37 6 -5 12 -7 12 -4 0 3 16 -1 35 -9 19
-8 35 -12 35 -8 0 3 7 -2 16 -10 8 -9 22 -16 30 -16 8 0 14 -4 14 -8 0 -5 16
-14 35 -22 19 -8 35 -19 35 -24 0 -6 18 -22 40 -36 22 -13 40 -30 40 -36 0 -7
9 -16 20 -19 11 -4 18 -10 15 -15 -3 -5 3 -15 12 -22 22 -16 63 -73 63 -88 0
-5 5 -10 11 -10 5 0 7 -4 4 -10 -3 -5 -1 -10 5 -10 6 0 8 -4 5 -10 -3 -5 1
-10 10 -10 10 0 15 -6 12 -13 -3 -7 1 -21 9 -32 8 -10 14 -27 14 -37 0 -10 4
-18 10 -18 5 0 9 -3 9 -7 -4 -24 2 -63 9 -59 4 2 8 -12 10 -32 4 -84 9 -122
15 -128 3 -4 2 -14 -3 -24 -5 -10 -6 -20 -3 -24 8 -8 11 -76 3 -71 -3 2 -6
-16 -7 -40 -1 -24 -7 -54 -13 -66 -9 -16 -9 -20 0 -14 9 5 9 1 -1 -16 -7 -13
-12 -26 -12 -29 1 -9 -17 -55 -32 -81 -8 -14 -12 -28 -9 -31 2 -3 -2 -11 -11
-18 -8 -7 -15 -18 -15 -25 0 -8 -3 -15 -7 -17 -5 -1 -21 -23 -38 -47 -50 -74
-204 -220 -205 -194 0 4 -6 1 -13 -8 -11 -14 -53 -42 -67 -44 -3 -1 -24 -11
-46 -23 -38 -19 -72 -30 -116 -36 -10 -1 -20 -5 -24 -8 -3 -4 -13 -4 -22 -1
-8 4 -13 2 -10 -3 4 -5 -5 -10 -18 -10 -15 -1 -21 2 -17 10 5 8 3 8 -8 0 -8
-6 -33 -10 -55 -9 -32 1 -40 -3 -36 -13 3 -9 7 -10 11 -3 4 6 12 6 21 1 9 -5
19 -5 27 2 7 6 13 7 13 2 0 -5 25 -9 55 -9 30 0 55 2 55 5 0 3 15 7 33 8 38 3
55 6 82 15 11 3 33 8 49 11 16 3 33 11 38 18 6 10 8 10 8 -2 0 -12 2 -12 9 -2
4 7 14 14 22 16 24 4 87 37 100 52 6 8 17 14 23 14 6 0 23 11 38 25 15 14 30
25 34 25 9 0 123 123 123 133 0 4 6 14 13 22 7 8 18 20 24 28 17 20 64 107 59
107 -3 0 2 11 11 25 8 13 13 29 10 34 -4 5 2 14 11 20 10 6 15 11 11 11 -4 0
-1 18 7 40 8 22 14 42 15 45 0 3 0 6 1 8 8 26 17 257 9 257 -3 0 -6 12 -7 28
-4 65 -20 123 -37 134 -7 5 -6 8 4 8 12 0 12 2 2 9 -7 4 -14 15 -16 23 -3 27
-80 170 -93 175 -7 3 -13 11 -13 19 0 19 -119 144 -137 144 -8 0 -12 4 -8 9 3
5 -4 12 -15 16 -11 3 -20 11 -20 16 0 6 -4 7 -10 4 -5 -3 -10 -1 -10 5 0 6 -4
9 -9 6 -5 -4 -11 -2 -13 3 -1 5 -10 11 -18 13 -8 2 -21 9 -28 16 -7 6 -22 12
-33 12 -10 0 -19 3 -19 8 0 11 -96 46 -155 57 -11 2 -20 4 -20 6 0 1 -11 2
-25 3 -14 1 -31 5 -37 9 -8 5 -13 3 -13 -5 0 -8 -3 -9 -8 -3 -6 9 -149 15
-157 6z"/>
<path d="M974 1533 c-13 -6 -24 -10 -24 -7 0 3 -18 -5 -40 -17 -22 -13 -40
-27 -40 -31 0 -5 -4 -7 -9 -4 -8 5 -25 -29 -22 -46 1 -5 -3 -8 -8 -8 -10 0 -9
-19 2 -37 4 -6 3 -14 -3 -18 -9 -6 45 -102 75 -132 8 -7 17 -22 20 -33 3 -11
11 -20 16 -20 5 0 9 -9 9 -19 0 -11 5 -23 10 -26 6 -4 8 -10 5 -15 -3 -5 -1
-11 5 -15 6 -4 8 -11 5 -16 -4 -5 -2 -9 3 -9 5 0 8 -33 7 -72 -2 -40 -4 -73
-5 -73 -3 0 -9 -39 -12 -72 -1 -18 -5 -33 -8 -33 -3 0 -6 -10 -6 -22 -1 -13
-4 -56 -7 -96 -3 -40 -1 -75 4 -77 4 -3 6 -12 3 -19 -5 -14 34 -109 48 -114 4
-2 8 -9 8 -17 0 -20 27 -39 36 -24 5 8 3 9 -6 4 -10 -6 -12 -3 -8 13 4 12 1
22 -4 22 -6 0 -4 8 3 17 8 9 9 14 3 10 -7 -4 -14 2 -17 13 -3 12 -1 18 5 14 5
-4 5 4 -2 16 -6 12 -10 31 -7 41 3 11 0 19 -6 19 -8 0 -9 3 -1 8 6 4 10 26 9
50 0 23 3 42 7 42 4 0 5 7 2 15 -4 8 -2 15 3 15 4 0 9 14 9 31 1 17 6 34 10
38 5 3 11 13 13 21 2 8 4 20 6 25 1 6 7 23 13 38 7 16 12 35 12 43 0 8 3 14 8
14 12 0 14 114 2 145 -6 17 -11 32 -10 34 1 2 -4 7 -12 12 -7 5 -13 13 -13 19
0 6 -7 15 -15 20 -8 5 -11 10 -7 10 5 0 -10 23 -33 50 -23 28 -39 50 -36 50 4
0 1 10 -6 23 -15 28 -19 77 -5 77 6 0 7 3 4 7 -11 10 54 52 71 46 10 -4 13 -2
8 5 -4 7 2 9 19 6 14 -2 25 -1 25 4 0 8 103 7 145 -2 11 -3 27 -5 35 -6 11 0
9 -6 -9 -20 -12 -11 -27 -17 -32 -14 -5 3 -9 1 -9 -3 0 -5 -8 -10 -17 -11 -29
-3 -47 -7 -58 -13 -5 -3 -29 -5 -52 -4 -23 1 -40 -2 -37 -7 3 -5 9 -6 14 -3 4
3 10 1 12 -5 1 -5 14 -11 28 -14 14 -2 25 -5 25 -6 0 -5 72 -6 80 -2 5 3 22 7
39 9 16 2 34 8 41 13 7 5 15 7 18 3 4 -3 7 0 7 7 0 7 3 11 6 7 3 -3 26 3 51
14 26 11 55 21 67 24 12 2 21 4 21 5 0 7 67 5 71 -2 3 -4 13 -8 22 -8 10 0 22
-8 28 -17 11 -19 9 -103 -4 -113 -9 -6 -12 -22 -16 -77 -2 -35 0 -43 11 -38 8
3 17 5 19 5 2 0 4 7 4 16 0 8 6 22 14 30 8 7 22 35 32 61 10 27 21 50 24 53 3
3 5 12 5 20 -1 8 2 22 6 31 5 9 5 20 1 24 -7 7 -9 13 -11 45 0 11 -8 20 -17
20 -8 0 -13 4 -10 9 3 5 -9 12 -27 16 -17 4 -39 9 -47 12 -27 7 -118 2 -127
-7 -2 -1 -6 -3 -10 -5 -5 -1 -21 -8 -38 -15 -16 -7 -33 -13 -37 -12 -5 1 -8
-2 -8 -6 0 -4 -9 -8 -20 -9 -11 -1 -20 3 -20 9 0 6 -3 8 -7 5 -3 -4 -11 -3
-17 2 -12 10 -119 43 -132 40 -5 -1 -11 0 -14 1 -18 9 -147 4 -166 -7z"/>
<path d="M770 1476 c-19 -13 -50 -37 -67 -54 -18 -16 -33 -27 -33 -24 0 4 -10
-8 -21 -25 -12 -18 -25 -33 -30 -33 -5 0 -8 -3 -7 -7 2 -9 -19 -84 -32 -120
-5 -11 -6 -24 -2 -27 3 -4 7 -14 9 -24 7 -35 9 -40 19 -53 6 -8 9 -20 8 -26
-1 -7 -2 -19 -3 -27 0 -8 -24 -48 -51 -89 -53 -77 -57 -107 -15 -107 12 0 30
-10 41 -22 10 -12 14 -18 8 -15 -17 10 -25 -44 -9 -59 7 -7 15 -10 19 -7 9 10
7 -6 -4 -28 -7 -13 -7 -19 -1 -19 14 0 39 -52 34 -67 -8 -22 15 -49 45 -51 16
-1 57 7 91 18 65 20 90 18 92 -9 4 -54 -3 -146 -11 -146 -1 0 -3 -9 -5 -20 -1
-11 -6 -28 -10 -38 -7 -16 -3 -17 41 -11 27 3 51 10 52 15 2 5 7 7 12 4 4 -3
19 4 31 15 14 11 18 19 11 20 -7 0 -11 4 -8 8 3 5 -6 20 -18 33 -13 14 -27 35
-30 47 -4 12 -11 22 -16 22 -5 0 -7 9 -5 20 2 11 0 22 -6 25 -5 4 -9 18 -9 32
0 19 -4 24 -16 19 -8 -3 -13 -2 -10 3 3 5 -6 9 -19 9 -32 0 -54 18 -50 40 2 9
4 20 4 25 1 4 8 7 16 7 8 0 15 3 15 8 0 4 -26 8 -57 10 -51 2 -84 14 -83 31 1
21 34 45 65 47 20 2 40 6 45 9 6 3 10 2 10 -2 0 -10 46 -10 56 0 3 3 12 3 20
0 8 -3 14 0 14 7 0 6 -4 9 -9 5 -5 -3 -12 -1 -16 5 -4 6 -12 7 -23 1 -12 -7
-21 -4 -34 11 -21 25 -21 24 -7 49 6 12 17 18 25 15 8 -3 14 -2 14 3 0 5 12 7
27 5 15 -1 34 2 43 7 13 9 13 10 -1 6 -9 -3 -22 0 -28 6 -8 8 -11 7 -11 -4 0
-11 -2 -11 -9 -1 -11 17 -21 17 -32 0 -5 -7 -9 -8 -9 -3 0 12 -50 13 -67 2 -7
-5 -13 -4 -13 2 0 5 -9 8 -19 6 -22 -4 -35 8 -46 44 -5 15 -3 21 3 17 6 -3 12
-1 14 5 3 8 40 13 109 14 121 3 119 2 119 13 0 5 -22 8 -48 8 -75 -3 -108 9
-107 37 0 32 28 60 44 44 8 -8 11 -8 11 0 0 7 12 9 29 7 19 -3 30 0 34 10 4
10 0 14 -14 11 -10 -2 -19 -1 -19 3 0 4 -20 8 -45 8 -25 0 -45 -5 -45 -11 0
-5 -5 -3 -10 5 -5 8 -10 11 -10 7 0 -4 -9 -3 -20 3 -24 13 -26 52 -5 70 12 10
15 10 15 -1 0 -9 3 -10 8 -3 4 5 17 10 30 11 47 2 53 3 47 13 -3 6 -19 10 -35
10 -38 0 -55 28 -39 64 7 14 16 23 20 20 5 -3 6 8 3 24 -4 17 -1 32 5 36 6 4
9 11 6 16 -3 5 5 16 17 24 12 9 17 16 10 16 -7 0 -10 5 -7 10 8 14 5 12 -35
-14z"/>
<path d="M1229 970 c-14 -16 -25 -31 -23 -33 2 -2 -5 -12 -16 -22 -11 -10 -20
-22 -20 -27 0 -5 -8 -20 -17 -35 -10 -14 -18 -31 -20 -37 -1 -6 -9 -30 -18
-54 -8 -24 -16 -54 -17 -68 -1 -13 -5 -24 -8 -24 -3 0 -6 -10 -7 -22 0 -13 -3
-42 -6 -65 -3 -25 -1 -43 5 -43 5 0 6 -6 2 -12 -11 -18 -12 -48 -2 -48 5 0 6
-5 2 -12 -4 -6 -3 -8 3 -5 6 4 13 16 16 27 3 13 1 18 -6 13 -9 -5 -9 -3 0 8 6
8 13 23 15 34 1 11 8 23 13 27 6 5 6 8 -2 8 -7 0 -5 16 7 49 11 27 16 51 13
55 -4 3 -2 6 4 6 5 0 10 6 10 13 0 24 45 104 82 145 54 61 80 63 133 11 24
-23 38 -39 31 -35 -8 4 -8 0 0 -18 7 -14 17 -21 25 -18 11 4 11 6 0 13 -10 7
-10 9 2 9 9 0 11 3 5 8 -10 7 -17 27 -18 50 0 6 -4 12 -9 12 -5 0 -6 5 -3 10
3 6 1 10 -6 10 -7 0 -10 3 -6 6 3 3 0 13 -6 21 -56 69 -93 87 -125 61 -11 -9
-14 -10 -8 0 12 20 3 13 -25 -18z"/>
<path d="M1405 161 c-11 -11 -15 -12 -15 -3 0 7 -4 10 -10 7 -6 -4 -5 -11 3
-19 8 -10 14 -10 19 -3 3 6 14 12 24 13 25 4 37 20 14 20 -11 0 -27 -7 -35
-15z"/>
</g>
</svg>
